# xmcd
#
# Track frame offsets: 
#        183
#        25135
#        45713
#        68730
#        89155
#        110945
#        136388
#        166683
#        178458
#
# Disc length: 2525 seconds
#
# Revision: 1
# Processed by: cddbd v1.5.2PL0 Copyright (c) Steve Scherf et al.
# Submitted via: ExactAudioCopyFreeDBPlugin 1.0
#
DISCID=8209db09
DTITLE=Bud Powell - Time Waits
DYEAR=1958
DGENRE=Jazz
TTITLE0=Buster Rides Again
TTITLE1=Sub City
TTITLE2=Time Waits
TTITLE3=Marmalade
TTITLE4=Monopoly
TTITLE5=John's Abbey
TTITLE6=Dry Soul
TTITLE7=Sub City [Alternate Take]
TTITLE8=John's Abbey [Alternate Take]
EXTD=YEAR: 1958
EXTT0=
EXTT1=
EXTT2=
EXTT3=
EXTT4=
EXTT5=
EXTT6=
EXTT7=
EXTT8=
PLAYORDER=
